<svg width="432" height="432" version="1.0" viewBox="0 0 324 324" xmlns="http://www.w3.org/2000/svg" zoomAndPan="magnify">
 <defs>
  <clipPath id="6e038e33a6">
   <path d="m40.5 40.5h243v243h-243z"/>
  </clipPath>
  <clipPath id="a2472f1580">
   <path d="m51.633 49.152h220.5v225.69h-220.5z"/>
  </clipPath>
 </defs>
 <path d="m284.41 0c21.848 0 39.586 17.738 39.586 39.586v244.83c0 21.848-17.738 39.586-39.586 39.586h-244.83c-21.848 0-39.586-17.738-39.586-39.586v-244.83c0-21.848 17.738-39.586 39.586-39.586zm-37.129 80.812c-21.414-21.441-49.895-33.254-80.238-33.266-62.52 0-113.41 50.879-113.43 113.42-0.007813 19.992 5.2148 39.504 15.141 56.707l-16.094 58.777 60.133-15.773c16.566 9.0391 35.219 13.801 54.203 13.805h0.046875c62.516 0 113.41-50.883 113.43-113.43 0.011719-30.309-11.777-58.809-33.191-80.246zm-80.238 174.52h-0.039063c-16.918-0.007812-33.508-4.5547-47.984-13.145l-3.4414-2.043-35.684 9.3633 9.5234-34.793-2.2383-3.5664c-9.4375-15.012-14.426-32.359-14.418-50.172 0.023437-51.98 42.316-94.273 94.32-94.273 25.18 0.011719 48.852 9.8281 66.652 27.648 17.801 17.82 27.598 41.508 27.586 66.699-0.019531 51.984-42.312 94.277-94.277 94.281zm51.715-70.613c-2.8359-1.418-16.77-8.2734-19.367-9.2188-2.5977-0.94531-4.4883-1.418-6.375 1.418-1.8906 2.8359-7.3242 9.2227-8.9766 11.113-1.6523 1.8906-3.3047 2.1289-6.1406 0.70703-2.832-1.418-11.965-4.4102-22.793-14.066-8.4219-7.5156-14.113-16.797-15.766-19.633-1.6523-2.8359-0.17578-4.3711 1.2422-5.7852 1.2773-1.2695 2.8359-3.3086 4.2539-4.9648 1.4141-1.6562 1.8867-2.8359 2.832-4.7266 0.94531-1.8945 0.47266-3.5469-0.23438-4.9648-0.71094-1.418-6.3789-15.371-8.7383-21.047-2.3008-5.5273-4.6367-4.7773-6.3789-4.8633-1.6523-0.082031-3.543-0.10156-5.4297-0.10156-1.8906 0-4.9609 0.71094-7.5586 3.5469-2.5977 2.8359-9.9219 9.6953-9.9219 23.645 0 13.949 10.156 27.426 11.574 29.32 1.418 1.8906 19.984 30.516 48.418 42.793 6.7617 2.9219 12.039 4.6641 16.156 5.9727 6.7891 2.1562 12.969 1.8516 17.852 1.1211 5.4453-0.8125 16.77-6.8555 19.129-13.477 2.3633-6.6211 2.3633-12.297 1.6523-13.477-0.70703-1.1836-2.5977-1.8906-5.4297-3.3125z" fill-rule="evenodd"/>
 <g clip-path="url(#6e038e33a6)">
  <path d="m40.5 40.5h243v243h-243z"/>
 </g>
 <g clip-path="url(#a2472f1580)">
  <path d="m182.99 144.67 82.172-95.516h-19.473l-71.348 82.934-56.984-82.934h-65.727l86.172 125.41-86.172 100.16h19.473l75.344-87.582 60.184 87.582h65.723l-89.367-130.06zm-26.668 31-8.7305-12.488-69.473-99.367h29.91l64.793 92.684 72.875 104.24h-29.906l-59.469-85.059z" fill="#f3f1f1"/>
 </g>
</svg>
